<mxfile host="app.diagrams.net" modified="2022-02-09T12:19:32.283Z" agent="5.0 (Windows NT 10.0; Win64; x64) AppleWebKit/537.36 (KHTML, like Gecko) Chrome/98.0.4758.82 Safari/537.36" etag="sYTVZBx7zG8GYIMMtJhL" version="16.5.3" type="github">
  <diagram name="Page-1" id="2c0d36ab-eaac-3732-788b-9136903baeff">
    <mxGraphModel dx="1743" dy="1634" grid="1" gridSize="10" guides="1" tooltips="1" connect="1" arrows="1" fold="1" page="1" pageScale="1.5" pageWidth="1169" pageHeight="827" background="none" math="0" shadow="0">
      <root>
        <mxCell id="0" />
        <mxCell id="1" parent="0" />
        <mxCell id="36HzXRvJtUE0cEunPF5f-139" value="" style="rounded=0;whiteSpace=wrap;html=1;labelBackgroundColor=none;fontColor=default;strokeColor=#926DB3;fillColor=none;" vertex="1" parent="1">
          <mxGeometry x="700" y="940" width="480" height="250" as="geometry" />
        </mxCell>
        <mxCell id="36HzXRvJtUE0cEunPF5f-138" value="" style="rounded=0;whiteSpace=wrap;html=1;labelBackgroundColor=none;fontColor=default;strokeColor=#926DB3;fillColor=none;" vertex="1" parent="1">
          <mxGeometry x="1300" y="940" width="720" height="250" as="geometry" />
        </mxCell>
        <mxCell id="36HzXRvJtUE0cEunPF5f-136" value="" style="rounded=0;whiteSpace=wrap;html=1;labelBackgroundColor=none;fontColor=default;strokeColor=default;fillColor=none;" vertex="1" parent="1">
          <mxGeometry x="700" y="220" width="1470" height="600" as="geometry" />
        </mxCell>
        <mxCell id="122" value="SoM Linux Userland" style="fillColor=#10739E;strokeColor=none;opacity=30;align=left;verticalAlign=bottom;fontStyle=1" parent="1" vertex="1">
          <mxGeometry x="700" y="220" width="1470" height="385.5" as="geometry" />
        </mxCell>
        <mxCell id="117" value="AVBx7 Motherboard" style="fillColor=#F2931E;strokeColor=none;opacity=30;align=left;verticalAlign=top;fontStyle=1" parent="1" vertex="1">
          <mxGeometry x="700" y="940" width="480" height="250" as="geometry" />
        </mxCell>
        <mxCell id="109" value="SoM Linux Kernel" style="fillColor=#12AAB5;strokeColor=none;opacity=30;align=left;verticalAlign=top;fontStyle=1" parent="1" vertex="1">
          <mxGeometry x="700" y="605.5" width="1470" height="214.5" as="geometry" />
        </mxCell>
        <mxCell id="4" value="ALSA SoC Driver" style="rounded=1;fillColor=#23445D;gradientColor=none;strokeColor=none;fontColor=#FFFFFF;fontStyle=1;fontFamily=Tahoma;fontSize=14" parent="1" vertex="1">
          <mxGeometry x="889.9999999999998" y="670" width="190" height="80" as="geometry" />
        </mxCell>
        <mxCell id="29" value="MCO-audio-app" style="rounded=1;fillColor=#dae8fc;strokeColor=#6c8ebf;fontStyle=1;fontFamily=Tahoma;fontSize=14;labelBackgroundColor=none;align=center;verticalAlign=top;" parent="1" vertex="1">
          <mxGeometry x="884" y="260" width="588" height="274.5" as="geometry" />
        </mxCell>
        <mxCell id="10" value="LibOpus" style="rounded=1;fillColor=#23445D;gradientColor=none;strokeColor=none;fontColor=#FFFFFF;fontStyle=1;fontFamily=Tahoma;fontSize=14" parent="1" vertex="1">
          <mxGeometry x="1093" y="415.5" width="190" height="80" as="geometry" />
        </mxCell>
        <mxCell id="36HzXRvJtUE0cEunPF5f-130" value="ALSA Middleware" style="rounded=1;fillColor=#23445D;gradientColor=none;strokeColor=none;fontColor=#FFFFFF;fontStyle=1;fontFamily=Tahoma;fontSize=14" vertex="1" parent="1">
          <mxGeometry x="890" y="605.5" width="190" height="50" as="geometry" />
        </mxCell>
        <mxCell id="36HzXRvJtUE0cEunPF5f-131" value="ALSA Lib" style="rounded=1;fillColor=#23445D;gradientColor=none;strokeColor=none;fontColor=#FFFFFF;fontStyle=1;fontFamily=Tahoma;fontSize=14" vertex="1" parent="1">
          <mxGeometry x="890" y="545" width="190" height="50" as="geometry" />
        </mxCell>
        <mxCell id="36HzXRvJtUE0cEunPF5f-132" value="Spidev" style="rounded=1;fillColor=#23445D;gradientColor=none;strokeColor=none;fontColor=#FFFFFF;fontStyle=1;fontFamily=Tahoma;fontSize=14" vertex="1" parent="1">
          <mxGeometry x="1300" y="605.5" width="127" height="50" as="geometry" />
        </mxCell>
        <mxCell id="36HzXRvJtUE0cEunPF5f-133" value="Gpio" style="rounded=1;fillColor=#23445D;gradientColor=none;strokeColor=none;fontColor=#FFFFFF;fontStyle=1;fontFamily=Tahoma;fontSize=14" vertex="1" parent="1">
          <mxGeometry x="1440" y="605.5" width="127" height="50" as="geometry" />
        </mxCell>
        <mxCell id="36HzXRvJtUE0cEunPF5f-134" value="A8350 Terminal STM32" style="fillColor=#d5e8d4;strokeColor=#82b366;opacity=30;align=left;verticalAlign=top;fontStyle=1" vertex="1" parent="1">
          <mxGeometry x="1300" y="940" width="580" height="250" as="geometry" />
        </mxCell>
        <mxCell id="36HzXRvJtUE0cEunPF5f-137" value="A8350 Terminal : DSP&#xa;&#xa;" style="fillColor=#DED5E8;strokeColor=#926DB3;opacity=30;align=left;verticalAlign=top;fontStyle=1" vertex="1" parent="1">
          <mxGeometry x="1880" y="940" width="140" height="250" as="geometry" />
        </mxCell>
      </root>
    </mxGraphModel>
  </diagram>
</mxfile>
